<svg width="160" height="32" viewBox="0 0 160 32" xmlns="http://www.w3.org/2000/svg" class="sc-740ujg-0 kyceQR"><path d="M32.785 4.805c6.297 0 11.42 5.151 11.42 11.482 0 4.625-2.738 8.778-6.974 10.58a2.327 2.327 0 01-3.056-1.247 2.35 2.35 0 011.24-3.073 6.785 6.785 0 004.125-6.26c0-3.745-3.03-6.792-6.755-6.792-.292 0-.599.022-.911.064l-1.4.19-.816-1.161a9.152 9.152 0 00-7.475-3.898c-3.786 0-7.127 2.288-8.513 5.83l-.673 1.718-1.819-.254a5.593 5.593 0 00-.772-.056c-3.057 0-5.545 2.5-5.545 5.575 0 3.074 2.488 5.574 5.545 5.574h.673a1.471 1.471 0 01.123-1.93 1.452 1.452 0 012.062.001l3.176 3.194c.57.573.57 1.5 0 2.073l-3.176 3.195a1.449 1.449 0 01-2.062.001 1.47 1.47 0 01-.189-1.836h-.607c-5.63 0-10.209-4.608-10.209-10.268 0-5.542 4.39-10.074 9.855-10.262A13.848 13.848 0 0114.32 2.47 13.678 13.678 0 0122.183 0c4.024 0 7.838 1.775 10.447 4.806h.155zm82.249-1.009c0-1.26 1.045-2.276 2.3-2.276 1.254 0 2.299 1.015 2.299 2.276a2.303 2.303 0 01-2.299 2.313 2.303 2.303 0 01-2.3-2.313zm-62.988 6.341c1.323-1.681 4.424-2.382 6.55-2.382 3.728 0 7.037 1.577 7.037 6.131v9.565a1.864 1.864 0 01-1.846 1.856h-.21c-.487 0-1.671-.42-1.671-1.716v-.316c-1.22 1.437-3.206 2.242-5.4 2.242-2.753 0-5.889-1.856-5.889-5.605 0-3.889 3.136-5.5 5.888-5.5 2.23 0 4.216.735 5.4 2.172V13.99c0-1.926-1.602-3.117-3.902-3.117-1.463 0-2.787.385-4.006 1.296-.21.14-.488.245-.767.245-.696 0-1.463-.56-1.463-1.471 0-.281.104-.596.279-.807zm5.888 12.788c1.602 0 3.135-.56 3.972-1.717v-2.522c-.837-1.121-2.37-1.682-3.972-1.682-1.986 0-3.52 1.121-3.52 2.978 0 1.787 1.534 2.943 3.52 2.943zm14.422-12.262c.906-1.226 2.23-2.697 4.006-2.697 1.011 0 1.638.7 1.638 1.611 0 1.121-.766 1.822-1.811 1.962-1.499.14-2.927.77-3.833 2.067v9.845a1.864 1.864 0 01-1.847 1.856h-.069c-1.01 0-1.812-.84-1.812-1.856V9.787c0-.98.802-1.821 1.916-1.821.976 0 1.812.84 1.812 1.821v.876zm20.277-2.697c1.01 0 1.812.84 1.812 1.856v20.074a1.85 1.85 0 01-1.882 1.857c-1.01 0-1.846-.84-1.846-1.857v-7.111c-1.36 1.786-3.275 2.732-5.365 2.732-4.356 0-7.492-3.328-7.492-8.898s3.136-8.864 7.492-8.864a6.653 6.653 0 015.365 2.698v-.63c0-1.017.836-1.857 1.916-1.857zm-1.916 11.981v-6.621c-.802-1.226-2.578-2.242-4.285-2.242-2.823 0-4.669 2.312-4.669 5.535 0 3.258 1.846 5.57 4.669 5.57 1.707 0 3.483-1.05 4.285-2.242zm18.081-10.16c0-.98.801-1.821 1.916-1.821.976 0 1.812.84 1.812 1.821v13.664a1.871 1.871 0 01-1.881 1.856 1.842 1.842 0 01-1.847-1.856v-.596c-1.219 1.366-3.31 2.662-5.958 2.662-3.623 0-5.4-1.926-5.4-5.36V9.787c0-.98.801-1.821 1.916-1.821.976 0 1.812.84 1.812 1.821v9.004c0 2.592 1.324 3.398 3.345 3.398 1.846 0 3.414-1.05 4.285-2.172V9.787zm8.605-1.821c.976 0 1.812.84 1.812 1.821v13.664a1.871 1.871 0 01-1.881 1.856 1.842 1.842 0 01-1.847-1.856V9.787c0-.98.801-1.821 1.916-1.821zm17.35.035c1.15 0 1.916.875 1.916 1.856 0 .176-.035.42-.139.631l-5.296 13.067c-.453 1.052-1.463 1.752-2.613 1.752h-.07c-1.149 0-2.195-.7-2.613-1.752l-5.295-13.067a1.52 1.52 0 01-.14-.666c0-.91.767-1.821 1.882-1.821.766 0 1.428.42 1.707 1.12l4.494 11.632 4.46-11.596c.279-.736.975-1.156 1.707-1.156zm2.195 8.618c0-4.905 3.554-8.864 8.536-8.864 3.937 0 6.794 2.382 7.839 6.026.209.7.418 1.507.418 2.242 0 .981-.801 1.822-1.812 1.822H140.85c.244 2.523 2.16 4.66 5.296 4.66 1.219 0 2.613-.386 3.763-1.122.243-.14.522-.21.766-.21.767 0 1.568.63 1.568 1.542 0 1.927-4.32 2.802-6.481 2.802-5.051 0-8.814-3.538-8.814-8.898zm8.536-5.85c-3.066 0-4.495 2.451-4.669 4.484h9.337c-.069-1.962-1.393-4.485-4.668-4.485zm12.088-2.803c.975 0 1.812.84 1.812 1.821v13.664a1.872 1.872 0 01-1.882 1.856 1.841 1.841 0 01-1.846-1.856V9.787c0-.98.801-1.821 1.916-1.821zm2.23-4.17a2.303 2.303 0 01-2.3 2.313 2.303 2.303 0 01-2.299-2.313c0-1.26 1.045-2.276 2.299-2.276 1.255 0 2.3 1.015 2.3 2.276zM18.825 14.888c0-.761.613-1.377 1.37-1.377h6.85c.472 0 .903.192 1.211.506l3.11 3.12c.291.296.473.705.473 1.167v10.358c0 .761-.613 1.377-1.37 1.377H20.195c-.757 0-1.37-.616-1.37-1.377V14.888zm6.85.344a.689.689 0 00-.686.689v3.1c0 .76.613 1.377 1.37 1.377h3.082a.689.689 0 000-1.378h-2.568a.514.514 0 01-.514-.516V15.92a.689.689 0 00-.685-.689z"></path></svg>